<svg width="5153" height="759" viewBox="0 0 5153 759" fill="none" xmlns="http://www.w3.org/2000/svg">
<path fill-rule="evenodd" clip-rule="evenodd" d="M2171.71 460.99C2175.51 386.149 2205.95 312.447 2263.1 255.295C2320.25 198.143 2393.95 167.703 2468.79 163.904C2464.99 238.698 2434.53 312.447 2377.4 369.599C2320.25 426.704 2246.55 457.191 2171.71 460.99Z" fill="#5B4BFF"/>
<path fill-rule="evenodd" clip-rule="evenodd" d="M2765.86 460.99C2762.09 386.149 2731.63 312.447 2674.48 255.295C2617.33 198.143 2543.63 167.703 2468.81 163.904C2472.59 238.698 2503.05 312.447 2560.2 369.599C2617.33 426.704 2691.05 457.191 2765.86 460.99Z" fill="#5B4BFF"/>
<path fill-rule="evenodd" clip-rule="evenodd" d="M2765.86 460.99C2762.09 386.149 2731.63 312.447 2674.48 255.295C2617.33 198.143 2543.63 167.703 2468.81 163.904C2472.59 238.698 2503.05 312.447 2560.2 369.599C2617.33 426.704 2691.05 457.191 2765.86 460.99Z" fill="#5B4BFF"/>
<path fill-rule="evenodd" clip-rule="evenodd" d="M2171.71 460.988C2175.51 535.782 2205.95 609.508 2263.1 666.66C2320.25 723.812 2393.95 754.252 2468.79 758.051C2464.99 683.257 2434.53 609.508 2377.4 552.379C2320.25 495.227 2246.55 464.74 2171.71 460.988Z" fill="#5B4BFF"/>
<path fill-rule="evenodd" clip-rule="evenodd" d="M2765.86 460.988C2762.09 535.782 2731.63 609.508 2674.48 666.66C2617.33 723.812 2543.63 754.252 2468.81 758.051C2472.59 683.257 2503.05 609.508 2560.2 552.379C2617.33 495.227 2691.05 464.74 2765.86 460.988Z" fill="#5B4BFF"/>
<path d="M5058.63 557.162L5153 558.166V745.897L5053.61 746.9C4849.82 746.9 4759.47 656.549 4757.46 489.901V44.1665H4963.26V198.768H5132.92V384.491H4963.26V484.881C4963.26 539.092 5004.42 557.162 5058.63 557.162Z" fill="black"/>
<path d="M4683.89 473.838V746.9H4497.17L4487.13 688.674C4451.99 731.842 4400.79 754.931 4347.58 754.931C4242.17 754.931 4129.74 665.584 4129.74 473.838C4129.74 287.111 4268.28 193.748 4405.81 193.748C4545.35 193.748 4683.89 287.111 4683.89 473.838ZM4483.11 473.838C4483.11 415.611 4445.97 387.502 4408.82 387.502C4370.67 387.502 4333.53 415.611 4333.53 473.838C4333.53 537.084 4370.67 568.205 4407.82 568.205C4444.96 568.205 4483.11 536.08 4483.11 473.838Z" fill="black"/>
<path d="M3865.88 191.746C3971.29 191.746 4063.64 263.023 4063.64 419.633V747.91H3862.86V419.633C3862.86 367.429 3832.75 341.328 3790.58 341.328C3749.42 341.328 3718.3 367.429 3718.3 419.633V747.91H3517.52V0H3718.3V250.976C3755.45 211.824 3808.65 191.746 3865.88 191.746Z" fill="black"/>
<path d="M3154.59 756.94C2936.74 756.94 2803.22 595.311 2803.22 395.533C2803.22 196.76 2936.74 34.1274 3154.59 34.1274C3295.13 34.1274 3401.55 103.397 3457.77 205.795L3272.04 294.139C3248.95 253.983 3209.8 228.885 3154.59 228.885C3059.21 228.885 3012.03 303.174 3012.03 395.533C3012.03 487.893 3059.21 562.182 3154.59 562.182C3209.8 562.182 3248.95 537.084 3272.04 496.928L3457.77 585.272C3401.55 688.674 3295.13 756.94 3154.59 756.94Z" fill="black"/>
<path d="M1776.3 290.125C1810.43 225.875 1875.69 191.743 1940.94 191.743C2036.31 191.743 2130.68 263.02 2130.68 419.629V747.906H1929.9V419.629C1929.9 367.426 1898.78 341.325 1867.66 341.325C1835.53 341.325 1804.41 367.426 1804.41 419.629V747.906H1603.63V419.629C1603.63 367.426 1572.51 341.325 1541.39 341.325C1509.26 341.325 1478.14 367.426 1478.14 419.629V747.906H1277.36V200.778H1456.06L1467.1 264.024C1504.24 216.84 1560.46 191.743 1615.68 191.743C1678.92 191.743 1741.17 222.864 1776.3 290.125Z" fill="black"/>
<path d="M924.592 191.743C1098.27 191.743 1204.68 318.235 1204.68 474.844C1204.68 630.449 1098.27 757.945 924.592 757.945C749.912 757.945 643.498 630.449 643.498 474.844C643.498 318.235 749.912 191.743 924.592 191.743ZM924.592 569.211C978.803 569.211 1004.9 527.047 1004.9 474.844C1004.9 422.641 978.803 380.477 924.592 380.477C869.377 380.477 843.276 422.641 843.276 474.844C843.276 527.047 869.377 569.211 924.592 569.211Z" fill="black"/>
<path d="M205.801 513.996V747.906H0V45.1724H205.801V281.09L406.582 45.1724H675.628L357.39 396.539L670.609 747.906H401.562L205.801 513.996Z" fill="black"/>
</svg>
