<svg width="5153" height="758" viewBox="0 0 5153 758" fill="none" xmlns="http://www.w3.org/2000/svg">
<path fill-rule="evenodd" clip-rule="evenodd" d="M2171.57 460.959C2175.37 386.122 2205.81 312.426 2262.95 255.277C2320.1 198.129 2393.79 167.691 2468.63 163.892C2464.83 238.681 2434.37 312.426 2377.25 369.574C2320.1 426.675 2246.41 457.16 2171.57 460.959Z" fill="#5B4BFF"/>
<path fill-rule="evenodd" clip-rule="evenodd" d="M2765.68 460.959C2761.91 386.122 2731.45 312.426 2674.3 255.277C2617.16 198.129 2543.46 167.691 2468.65 163.892C2472.43 238.681 2502.89 312.426 2560.03 369.574C2617.16 426.675 2690.87 457.16 2765.68 460.959Z" fill="#5B4BFF"/>
<path fill-rule="evenodd" clip-rule="evenodd" d="M2765.68 460.959C2761.91 386.122 2731.45 312.426 2674.3 255.277C2617.16 198.129 2543.46 167.691 2468.65 163.892C2472.43 238.681 2502.89 312.426 2560.03 369.574C2617.16 426.675 2690.87 457.16 2765.68 460.959Z" fill="#5B4BFF"/>
<path fill-rule="evenodd" clip-rule="evenodd" d="M2171.57 460.959C2175.37 535.749 2205.8 609.469 2262.95 666.618C2320.1 723.766 2393.79 754.204 2468.62 758.003C2464.82 683.214 2434.36 609.469 2377.24 552.345C2320.1 495.196 2246.4 464.711 2171.57 460.959Z" fill="#5B4BFF"/>
<path fill-rule="evenodd" clip-rule="evenodd" d="M2765.68 460.959C2761.91 535.749 2731.45 609.469 2674.3 666.618C2617.16 723.766 2543.46 754.204 2468.65 758.003C2472.43 683.214 2502.89 609.469 2560.03 552.345C2617.16 495.196 2690.87 464.711 2765.68 460.959Z" fill="#5B4BFF"/>
<path d="M5058.31 557.125L5152.67 558.129V745.847L5053.29 746.851C4849.51 746.851 4759.16 656.505 4757.16 489.867V44.1621H4962.94V198.754H5132.59V384.464H4962.94V484.848C4962.94 539.056 5004.1 557.125 5058.31 557.125Z" fill="white"/>
<path d="M4683.59 473.809V746.854H4496.88L4486.84 688.631C4451.71 731.796 4400.51 754.884 4347.31 754.884C4241.9 754.884 4129.47 665.543 4129.47 473.809C4129.47 287.095 4268 193.737 4405.53 193.737C4545.06 193.737 4683.59 287.095 4683.59 473.809ZM4482.82 473.809C4482.82 415.586 4445.68 387.479 4408.54 387.479C4370.39 387.479 4333.25 415.586 4333.25 473.809C4333.25 537.051 4370.39 568.17 4407.54 568.17C4444.68 568.17 4482.82 536.047 4482.82 473.809Z" fill="white"/>
<path d="M3865.63 191.734C3971.03 191.734 4063.38 263.006 4063.38 419.605V747.861H3862.61V419.605C3862.61 367.406 3832.5 341.306 3790.34 341.306C3749.18 341.306 3718.06 367.406 3718.06 419.605V747.861H3517.29V0H3718.06V250.96C3755.2 211.81 3808.41 191.734 3865.63 191.734Z" fill="white"/>
<path d="M3154.38 756.891C2936.55 756.891 2803.03 595.273 2803.03 395.509C2803.03 196.748 2936.55 34.126 3154.38 34.126C3294.92 34.126 3401.32 103.391 3457.54 205.783L3271.83 294.121C3248.74 253.967 3209.59 228.871 3154.38 228.871C3059.01 228.871 3011.83 303.155 3011.83 395.509C3011.83 487.862 3059.01 562.146 3154.38 562.146C3209.59 562.146 3248.74 537.05 3271.83 496.897L3457.54 585.235C3401.32 688.63 3294.92 756.891 3154.38 756.891Z" fill="white"/>
<path d="M1776.19 290.108C1810.32 225.862 1875.57 191.731 1940.82 191.731C2036.18 191.731 2130.54 263.004 2130.54 419.603V747.859H1929.77V419.603C1929.77 367.404 1898.66 341.304 1867.54 341.304C1835.41 341.304 1804.29 367.404 1804.29 419.603V747.859H1603.53V419.603C1603.53 367.404 1572.41 341.304 1541.29 341.304C1509.16 341.304 1478.05 367.404 1478.05 419.603V747.859H1277.28V200.766H1455.96L1467 264.008C1504.15 216.827 1560.36 191.731 1615.57 191.731C1678.81 191.731 1741.05 222.851 1776.19 290.108Z" fill="white"/>
<path d="M924.528 191.731C1098.19 191.731 1204.6 318.215 1204.6 474.815C1204.6 630.41 1098.19 757.898 924.528 757.898C749.86 757.898 643.453 630.41 643.453 474.815C643.453 318.215 749.86 191.731 924.528 191.731ZM924.528 569.176C978.736 569.176 1004.84 527.014 1004.84 474.815C1004.84 422.615 978.736 380.453 924.528 380.453C869.317 380.453 843.217 422.615 843.217 474.815C843.217 527.014 869.317 569.176 924.528 569.176Z" fill="white"/>
<path d="M205.787 513.963V747.858H0V45.1694H205.787V281.072L406.555 45.1694H675.585L357.367 396.514L670.566 747.858H401.536L205.787 513.963Z" fill="white"/>
</svg>
